<mxfile host="Electron" modified="2023-06-20T17:30:30.815Z" agent="Mozilla/5.0 (Macintosh; Intel Mac OS X 10_15_7) AppleWebKit/537.36 (KHTML, like Gecko) draw.io/21.5.0 Chrome/112.0.5615.204 Electron/24.5.1 Safari/537.36" etag="ezlVTETpm2uzr8mwx7Vy" version="21.5.0" type="device" pages="3">
  <diagram id="Gc-ryx8ZMz1cIRCRtcsQ" name="Real-World">
    <mxGraphModel dx="1434" dy="854" grid="1" gridSize="10" guides="1" tooltips="1" connect="1" arrows="1" fold="1" page="1" pageScale="1" pageWidth="850" pageHeight="1100" math="0" shadow="0">
      <root>
        <mxCell id="0" />
        <mxCell id="1" parent="0" />
        <mxCell id="Uo1poOKvovUv89E4_tyU-8" value="AWS Cloud" style="sketch=0;outlineConnect=0;gradientColor=none;html=1;whiteSpace=wrap;fontSize=12;fontStyle=0;shape=mxgraph.aws4.group;grIcon=mxgraph.aws4.group_aws_cloud;strokeColor=#AAB7B8;fillColor=none;verticalAlign=top;align=left;spacingLeft=30;fontColor=#AAB7B8;dashed=0;" vertex="1" parent="1">
          <mxGeometry x="198" y="80" width="590" height="270" as="geometry" />
        </mxCell>
        <mxCell id="W-1mWTwF1mWdmzP6A6R2-26" value="" style="edgeStyle=orthogonalEdgeStyle;rounded=0;orthogonalLoop=1;jettySize=auto;html=1;" edge="1" parent="1" source="3RjWSTrGRPOTBX45WCkP-2" target="3RjWSTrGRPOTBX45WCkP-9">
          <mxGeometry relative="1" as="geometry" />
        </mxCell>
        <mxCell id="3RjWSTrGRPOTBX45WCkP-2" value="Amazon &lt;br&gt;Timestream" style="sketch=0;points=[[0,0,0],[0.25,0,0],[0.5,0,0],[0.75,0,0],[1,0,0],[0,1,0],[0.25,1,0],[0.5,1,0],[0.75,1,0],[1,1,0],[0,0.25,0],[0,0.5,0],[0,0.75,0],[1,0.25,0],[1,0.5,0],[1,0.75,0]];outlineConnect=0;fontColor=#232F3E;gradientColor=#4D72F3;gradientDirection=north;fillColor=#3334B9;strokeColor=#ffffff;dashed=0;verticalLabelPosition=bottom;verticalAlign=top;align=center;html=1;fontSize=12;fontStyle=0;aspect=fixed;shape=mxgraph.aws4.resourceIcon;resIcon=mxgraph.aws4.timestream;shadow=1;" parent="1" vertex="1">
          <mxGeometry x="401" y="901" width="78" height="78" as="geometry" />
        </mxCell>
        <mxCell id="3RjWSTrGRPOTBX45WCkP-3" style="edgeStyle=orthogonalEdgeStyle;rounded=0;orthogonalLoop=1;jettySize=auto;html=1;shadow=1;" parent="1" source="3RjWSTrGRPOTBX45WCkP-4" target="i-oD2hF6Bi4WrwGk8EXW-1" edge="1">
          <mxGeometry relative="1" as="geometry">
            <mxPoint x="386" y="729" as="targetPoint" />
            <Array as="points">
              <mxPoint x="271" y="930" />
              <mxPoint x="271" y="930" />
            </Array>
          </mxGeometry>
        </mxCell>
        <mxCell id="3RjWSTrGRPOTBX45WCkP-4" value="AWS&lt;br&gt;IoT Core" style="sketch=0;points=[[0,0,0],[0.25,0,0],[0.5,0,0],[0.75,0,0],[1,0,0],[0,1,0],[0.25,1,0],[0.5,1,0],[0.75,1,0],[1,1,0],[0,0.25,0],[0,0.5,0],[0,0.75,0],[1,0.25,0],[1,0.5,0],[1,0.75,0]];outlineConnect=0;fontColor=#232F3E;gradientColor=#60A337;gradientDirection=north;fillColor=#277116;strokeColor=#ffffff;dashed=0;verticalLabelPosition=bottom;verticalAlign=top;align=center;html=1;fontSize=12;fontStyle=0;aspect=fixed;shape=mxgraph.aws4.resourceIcon;resIcon=mxgraph.aws4.iot_core;shadow=1;" parent="1" vertex="1">
          <mxGeometry x="141" y="901" width="78" height="78" as="geometry" />
        </mxCell>
        <mxCell id="3RjWSTrGRPOTBX45WCkP-9" value="Amazon&lt;br&gt;Quicksight" style="sketch=0;points=[[0,0,0],[0.25,0,0],[0.5,0,0],[0.75,0,0],[1,0,0],[0,1,0],[0.25,1,0],[0.5,1,0],[0.75,1,0],[1,1,0],[0,0.25,0],[0,0.5,0],[0,0.75,0],[1,0.25,0],[1,0.5,0],[1,0.75,0]];outlineConnect=0;fontColor=#232F3E;gradientColor=#945DF2;gradientDirection=north;fillColor=#5A30B5;strokeColor=#ffffff;dashed=0;verticalLabelPosition=bottom;verticalAlign=top;align=center;html=1;fontSize=12;fontStyle=0;aspect=fixed;shape=mxgraph.aws4.resourceIcon;resIcon=mxgraph.aws4.quicksight;shadow=1;" parent="1" vertex="1">
          <mxGeometry x="541" y="901" width="78" height="78" as="geometry" />
        </mxCell>
        <mxCell id="3RjWSTrGRPOTBX45WCkP-10" style="edgeStyle=orthogonalEdgeStyle;rounded=0;orthogonalLoop=1;jettySize=auto;html=1;entryX=0.5;entryY=1;entryDx=0;entryDy=0;entryPerimeter=0;exitX=1;exitY=0.5;exitDx=0;exitDy=0;" parent="1" source="3RjWSTrGRPOTBX45WCkP-12" target="3RjWSTrGRPOTBX45WCkP-4" edge="1">
          <mxGeometry relative="1" as="geometry">
            <mxPoint x="107.22000000000003" y="760" as="sourcePoint" />
          </mxGeometry>
        </mxCell>
        <mxCell id="3RjWSTrGRPOTBX45WCkP-11" value="MQTT" style="edgeLabel;html=1;align=center;verticalAlign=middle;resizable=0;points=[];" parent="3RjWSTrGRPOTBX45WCkP-10" vertex="1" connectable="0">
          <mxGeometry x="-0.2307" relative="1" as="geometry">
            <mxPoint x="-17" as="offset" />
          </mxGeometry>
        </mxCell>
        <mxCell id="3RjWSTrGRPOTBX45WCkP-12" value="Meter&lt;br&gt;Data" style="whiteSpace=wrap;html=1;aspect=fixed;dashed=1;dashPattern=8 8;" parent="1" vertex="1">
          <mxGeometry x="19" y="1010" width="80" height="80" as="geometry" />
        </mxCell>
        <mxCell id="3RjWSTrGRPOTBX45WCkP-14" style="edgeStyle=orthogonalEdgeStyle;rounded=0;orthogonalLoop=1;jettySize=auto;html=1;entryX=0.5;entryY=0;entryDx=0;entryDy=0;entryPerimeter=0;" parent="1" source="3RjWSTrGRPOTBX45WCkP-13" target="3RjWSTrGRPOTBX45WCkP-4" edge="1">
          <mxGeometry relative="1" as="geometry" />
        </mxCell>
        <mxCell id="3RjWSTrGRPOTBX45WCkP-15" value="MQTT" style="edgeLabel;html=1;align=center;verticalAlign=middle;resizable=0;points=[];" parent="3RjWSTrGRPOTBX45WCkP-14" vertex="1" connectable="0">
          <mxGeometry x="0.0811" y="2" relative="1" as="geometry">
            <mxPoint x="-33" y="2" as="offset" />
          </mxGeometry>
        </mxCell>
        <mxCell id="3RjWSTrGRPOTBX45WCkP-13" value="Harmonic Meter&lt;br&gt;Data" style="whiteSpace=wrap;html=1;aspect=fixed;dashed=1;dashPattern=8 8;" parent="1" vertex="1">
          <mxGeometry x="14" y="820" width="80" height="80" as="geometry" />
        </mxCell>
        <mxCell id="i-oD2hF6Bi4WrwGk8EXW-2" style="edgeStyle=orthogonalEdgeStyle;rounded=0;orthogonalLoop=1;jettySize=auto;html=1;entryX=0;entryY=0.5;entryDx=0;entryDy=0;entryPerimeter=0;" parent="1" source="i-oD2hF6Bi4WrwGk8EXW-1" target="3RjWSTrGRPOTBX45WCkP-2" edge="1">
          <mxGeometry relative="1" as="geometry">
            <Array as="points">
              <mxPoint x="361" y="940" />
              <mxPoint x="361" y="940" />
            </Array>
            <mxPoint x="351" y="940" as="sourcePoint" />
            <mxPoint x="371" y="990" as="targetPoint" />
          </mxGeometry>
        </mxCell>
        <mxCell id="i-oD2hF6Bi4WrwGk8EXW-1" value="Amazon Kinesis Data Analytics" style="sketch=0;outlineConnect=0;fontColor=#232F3E;gradientColor=none;strokeColor=#ffffff;fillColor=#232F3E;dashed=0;verticalLabelPosition=middle;verticalAlign=bottom;align=center;html=1;whiteSpace=wrap;fontSize=10;fontStyle=1;spacing=3;shape=mxgraph.aws4.productIcon;prIcon=mxgraph.aws4.kinesis_data_analytics;" parent="1" vertex="1">
          <mxGeometry x="265" y="901" width="80" height="120" as="geometry" />
        </mxCell>
        <mxCell id="Uo1poOKvovUv89E4_tyU-9" value="" style="edgeStyle=orthogonalEdgeStyle;rounded=0;orthogonalLoop=1;jettySize=auto;html=1;" edge="1" parent="1" source="Uo1poOKvovUv89E4_tyU-1" target="Uo1poOKvovUv89E4_tyU-7">
          <mxGeometry relative="1" as="geometry" />
        </mxCell>
        <mxCell id="Uo1poOKvovUv89E4_tyU-1" value="" style="sketch=0;outlineConnect=0;fontColor=#232F3E;gradientColor=none;fillColor=#3F8624;strokeColor=none;dashed=0;verticalLabelPosition=bottom;verticalAlign=top;align=center;html=1;fontSize=12;fontStyle=0;aspect=fixed;pointerEvents=1;shape=mxgraph.aws4.mqtt_protocol;" vertex="1" parent="1">
          <mxGeometry x="110" y="160.5" width="70" height="70" as="geometry" />
        </mxCell>
        <mxCell id="Uo1poOKvovUv89E4_tyU-6" style="edgeStyle=orthogonalEdgeStyle;rounded=0;orthogonalLoop=1;jettySize=auto;html=1;" edge="1" parent="1" source="Uo1poOKvovUv89E4_tyU-2" target="Uo1poOKvovUv89E4_tyU-1">
          <mxGeometry relative="1" as="geometry">
            <mxPoint x="210" y="258" as="targetPoint" />
          </mxGeometry>
        </mxCell>
        <mxCell id="Uo1poOKvovUv89E4_tyU-2" value="Meter&lt;br&gt;Data" style="whiteSpace=wrap;html=1;aspect=fixed;dashed=1;dashPattern=8 8;" vertex="1" parent="1">
          <mxGeometry x="10" y="280" width="70" height="70" as="geometry" />
        </mxCell>
        <mxCell id="Uo1poOKvovUv89E4_tyU-4" style="edgeStyle=orthogonalEdgeStyle;rounded=0;orthogonalLoop=1;jettySize=auto;html=1;" edge="1" parent="1" source="Uo1poOKvovUv89E4_tyU-3" target="Uo1poOKvovUv89E4_tyU-1">
          <mxGeometry relative="1" as="geometry" />
        </mxCell>
        <mxCell id="Uo1poOKvovUv89E4_tyU-3" value="Harmonic Meter&lt;br&gt;Data" style="whiteSpace=wrap;html=1;aspect=fixed;dashed=1;dashPattern=8 8;" vertex="1" parent="1">
          <mxGeometry x="10" y="50" width="80" height="80" as="geometry" />
        </mxCell>
        <mxCell id="Uo1poOKvovUv89E4_tyU-11" value="" style="edgeStyle=orthogonalEdgeStyle;rounded=0;orthogonalLoop=1;jettySize=auto;html=1;" edge="1" parent="1" source="Uo1poOKvovUv89E4_tyU-7" target="Uo1poOKvovUv89E4_tyU-10">
          <mxGeometry relative="1" as="geometry" />
        </mxCell>
        <mxCell id="Uo1poOKvovUv89E4_tyU-7" value="AWS&lt;br&gt;IoT Core" style="sketch=0;points=[[0,0,0],[0.25,0,0],[0.5,0,0],[0.75,0,0],[1,0,0],[0,1,0],[0.25,1,0],[0.5,1,0],[0.75,1,0],[1,1,0],[0,0.25,0],[0,0.5,0],[0,0.75,0],[1,0.25,0],[1,0.5,0],[1,0.75,0]];outlineConnect=0;fontColor=#232F3E;gradientColor=#60A337;gradientDirection=north;fillColor=#277116;strokeColor=#ffffff;dashed=0;verticalLabelPosition=bottom;verticalAlign=top;align=center;html=1;fontSize=12;fontStyle=0;aspect=fixed;shape=mxgraph.aws4.resourceIcon;resIcon=mxgraph.aws4.iot_core;shadow=1;" vertex="1" parent="1">
          <mxGeometry x="214" y="160.5" width="70" height="70" as="geometry" />
        </mxCell>
        <mxCell id="Uo1poOKvovUv89E4_tyU-13" value="" style="edgeStyle=orthogonalEdgeStyle;rounded=0;orthogonalLoop=1;jettySize=auto;html=1;" edge="1" parent="1" source="Uo1poOKvovUv89E4_tyU-10" target="Uo1poOKvovUv89E4_tyU-12">
          <mxGeometry relative="1" as="geometry" />
        </mxCell>
        <mxCell id="Uo1poOKvovUv89E4_tyU-10" value="IoT &lt;br&gt;Topic" style="sketch=0;outlineConnect=0;fontColor=#232F3E;gradientColor=none;fillColor=#3F8624;strokeColor=none;dashed=0;verticalLabelPosition=bottom;verticalAlign=top;align=center;html=1;fontSize=12;fontStyle=0;aspect=fixed;pointerEvents=1;shape=mxgraph.aws4.topic_2;" vertex="1" parent="1">
          <mxGeometry x="318" y="170" width="34.65" height="51" as="geometry" />
        </mxCell>
        <mxCell id="Uo1poOKvovUv89E4_tyU-15" value="" style="edgeStyle=orthogonalEdgeStyle;rounded=0;orthogonalLoop=1;jettySize=auto;html=1;" edge="1" parent="1" source="Uo1poOKvovUv89E4_tyU-12" target="Uo1poOKvovUv89E4_tyU-14">
          <mxGeometry relative="1" as="geometry" />
        </mxCell>
        <mxCell id="Uo1poOKvovUv89E4_tyU-12" value="IoT &lt;br&gt;Rule" style="sketch=0;outlineConnect=0;fontColor=#232F3E;gradientColor=none;fillColor=#3F8624;strokeColor=none;dashed=0;verticalLabelPosition=bottom;verticalAlign=top;align=center;html=1;fontSize=12;fontStyle=0;aspect=fixed;pointerEvents=1;shape=mxgraph.aws4.rule;" vertex="1" parent="1">
          <mxGeometry x="395.31" y="165.5" width="35.38" height="60" as="geometry" />
        </mxCell>
        <mxCell id="Uo1poOKvovUv89E4_tyU-17" value="" style="edgeStyle=orthogonalEdgeStyle;rounded=0;orthogonalLoop=1;jettySize=auto;html=1;" edge="1" parent="1" source="Uo1poOKvovUv89E4_tyU-14" target="Uo1poOKvovUv89E4_tyU-16">
          <mxGeometry relative="1" as="geometry" />
        </mxCell>
        <mxCell id="W-1mWTwF1mWdmzP6A6R2-1" value="Trigger" style="edgeLabel;html=1;align=center;verticalAlign=middle;resizable=0;points=[];" vertex="1" connectable="0" parent="Uo1poOKvovUv89E4_tyU-17">
          <mxGeometry x="-0.2188" relative="1" as="geometry">
            <mxPoint x="1" as="offset" />
          </mxGeometry>
        </mxCell>
        <mxCell id="Uo1poOKvovUv89E4_tyU-14" value="IoT&lt;br&gt;Action" style="sketch=0;outlineConnect=0;fontColor=#232F3E;gradientColor=none;fillColor=#3F8624;strokeColor=none;dashed=0;verticalLabelPosition=bottom;verticalAlign=top;align=center;html=1;fontSize=12;fontStyle=0;aspect=fixed;pointerEvents=1;shape=mxgraph.aws4.action;" vertex="1" parent="1">
          <mxGeometry x="468" y="171" width="50" height="50" as="geometry" />
        </mxCell>
        <mxCell id="Uo1poOKvovUv89E4_tyU-19" value="" style="edgeStyle=orthogonalEdgeStyle;rounded=0;orthogonalLoop=1;jettySize=auto;html=1;" edge="1" parent="1" source="Uo1poOKvovUv89E4_tyU-16" target="Uo1poOKvovUv89E4_tyU-18">
          <mxGeometry relative="1" as="geometry" />
        </mxCell>
        <mxCell id="W-1mWTwF1mWdmzP6A6R2-2" value="Store" style="edgeLabel;html=1;align=center;verticalAlign=middle;resizable=0;points=[];" vertex="1" connectable="0" parent="Uo1poOKvovUv89E4_tyU-19">
          <mxGeometry x="-0.1115" y="1" relative="1" as="geometry">
            <mxPoint as="offset" />
          </mxGeometry>
        </mxCell>
        <mxCell id="Uo1poOKvovUv89E4_tyU-16" value="AWS&lt;br&gt;Lambda" style="sketch=0;outlineConnect=0;fontColor=#232F3E;gradientColor=none;fillColor=#3F8624;strokeColor=none;dashed=0;verticalLabelPosition=bottom;verticalAlign=top;align=center;html=1;fontSize=12;fontStyle=0;aspect=fixed;pointerEvents=1;shape=mxgraph.aws4.lambda_function;" vertex="1" parent="1">
          <mxGeometry x="588" y="166.75" width="57.5" height="57.5" as="geometry" />
        </mxCell>
        <mxCell id="Uo1poOKvovUv89E4_tyU-18" value="" style="sketch=0;points=[[0,0,0],[0.25,0,0],[0.5,0,0],[0.75,0,0],[1,0,0],[0,1,0],[0.25,1,0],[0.5,1,0],[0.75,1,0],[1,1,0],[0,0.25,0],[0,0.5,0],[0,0.75,0],[1,0.25,0],[1,0.5,0],[1,0.75,0]];outlineConnect=0;fontColor=#232F3E;gradientColor=#4D72F3;gradientDirection=north;fillColor=#3334B9;strokeColor=#ffffff;dashed=0;verticalLabelPosition=bottom;verticalAlign=top;align=center;html=1;fontSize=12;fontStyle=0;aspect=fixed;shape=mxgraph.aws4.resourceIcon;resIcon=mxgraph.aws4.timestream;" vertex="1" parent="1">
          <mxGeometry x="698" y="164" width="64" height="64" as="geometry" />
        </mxCell>
        <mxCell id="W-1mWTwF1mWdmzP6A6R2-3" value="&lt;b&gt;Option 1&lt;/b&gt;" style="text;html=1;strokeColor=none;fillColor=none;align=center;verticalAlign=middle;whiteSpace=wrap;rounded=0;" vertex="1" parent="1">
          <mxGeometry width="60" height="30" as="geometry" />
        </mxCell>
        <mxCell id="W-1mWTwF1mWdmzP6A6R2-4" value="&lt;b&gt;Option 2&lt;/b&gt;" style="text;html=1;strokeColor=none;fillColor=none;align=center;verticalAlign=middle;whiteSpace=wrap;rounded=0;" vertex="1" parent="1">
          <mxGeometry x="10" y="390" width="60" height="30" as="geometry" />
        </mxCell>
        <mxCell id="W-1mWTwF1mWdmzP6A6R2-5" value="AWS Cloud" style="sketch=0;outlineConnect=0;gradientColor=none;html=1;whiteSpace=wrap;fontSize=12;fontStyle=0;shape=mxgraph.aws4.group;grIcon=mxgraph.aws4.group_aws_cloud;strokeColor=#AAB7B8;fillColor=none;verticalAlign=top;align=left;spacingLeft=30;fontColor=#AAB7B8;dashed=0;" vertex="1" parent="1">
          <mxGeometry x="207" y="470" width="590" height="270" as="geometry" />
        </mxCell>
        <mxCell id="W-1mWTwF1mWdmzP6A6R2-6" value="" style="edgeStyle=orthogonalEdgeStyle;rounded=0;orthogonalLoop=1;jettySize=auto;html=1;" edge="1" parent="1" source="W-1mWTwF1mWdmzP6A6R2-7" target="W-1mWTwF1mWdmzP6A6R2-13">
          <mxGeometry relative="1" as="geometry" />
        </mxCell>
        <mxCell id="W-1mWTwF1mWdmzP6A6R2-7" value="" style="sketch=0;outlineConnect=0;fontColor=#232F3E;gradientColor=none;fillColor=#3F8624;strokeColor=none;dashed=0;verticalLabelPosition=bottom;verticalAlign=top;align=center;html=1;fontSize=12;fontStyle=0;aspect=fixed;pointerEvents=1;shape=mxgraph.aws4.mqtt_protocol;" vertex="1" parent="1">
          <mxGeometry x="119" y="550.5" width="70" height="70" as="geometry" />
        </mxCell>
        <mxCell id="W-1mWTwF1mWdmzP6A6R2-8" style="edgeStyle=orthogonalEdgeStyle;rounded=0;orthogonalLoop=1;jettySize=auto;html=1;" edge="1" parent="1" source="W-1mWTwF1mWdmzP6A6R2-9" target="W-1mWTwF1mWdmzP6A6R2-7">
          <mxGeometry relative="1" as="geometry">
            <mxPoint x="219" y="648" as="targetPoint" />
          </mxGeometry>
        </mxCell>
        <mxCell id="W-1mWTwF1mWdmzP6A6R2-9" value="Meter&lt;br&gt;Data" style="whiteSpace=wrap;html=1;aspect=fixed;dashed=1;dashPattern=8 8;" vertex="1" parent="1">
          <mxGeometry x="19" y="670" width="70" height="70" as="geometry" />
        </mxCell>
        <mxCell id="W-1mWTwF1mWdmzP6A6R2-10" style="edgeStyle=orthogonalEdgeStyle;rounded=0;orthogonalLoop=1;jettySize=auto;html=1;" edge="1" parent="1" source="W-1mWTwF1mWdmzP6A6R2-11" target="W-1mWTwF1mWdmzP6A6R2-7">
          <mxGeometry relative="1" as="geometry" />
        </mxCell>
        <mxCell id="W-1mWTwF1mWdmzP6A6R2-11" value="Harmonic Meter&lt;br&gt;Data" style="whiteSpace=wrap;html=1;aspect=fixed;dashed=1;dashPattern=8 8;" vertex="1" parent="1">
          <mxGeometry x="19" y="440" width="80" height="80" as="geometry" />
        </mxCell>
        <mxCell id="W-1mWTwF1mWdmzP6A6R2-12" value="" style="edgeStyle=orthogonalEdgeStyle;rounded=0;orthogonalLoop=1;jettySize=auto;html=1;" edge="1" parent="1" source="W-1mWTwF1mWdmzP6A6R2-13" target="W-1mWTwF1mWdmzP6A6R2-15">
          <mxGeometry relative="1" as="geometry" />
        </mxCell>
        <mxCell id="W-1mWTwF1mWdmzP6A6R2-13" value="AWS&lt;br&gt;IoT Core" style="sketch=0;points=[[0,0,0],[0.25,0,0],[0.5,0,0],[0.75,0,0],[1,0,0],[0,1,0],[0.25,1,0],[0.5,1,0],[0.75,1,0],[1,1,0],[0,0.25,0],[0,0.5,0],[0,0.75,0],[1,0.25,0],[1,0.5,0],[1,0.75,0]];outlineConnect=0;fontColor=#232F3E;gradientColor=#60A337;gradientDirection=north;fillColor=#277116;strokeColor=#ffffff;dashed=0;verticalLabelPosition=bottom;verticalAlign=top;align=center;html=1;fontSize=12;fontStyle=0;aspect=fixed;shape=mxgraph.aws4.resourceIcon;resIcon=mxgraph.aws4.iot_core;shadow=1;" vertex="1" parent="1">
          <mxGeometry x="223" y="550.5" width="70" height="70" as="geometry" />
        </mxCell>
        <mxCell id="W-1mWTwF1mWdmzP6A6R2-14" value="" style="edgeStyle=orthogonalEdgeStyle;rounded=0;orthogonalLoop=1;jettySize=auto;html=1;" edge="1" parent="1" source="W-1mWTwF1mWdmzP6A6R2-15" target="W-1mWTwF1mWdmzP6A6R2-17">
          <mxGeometry relative="1" as="geometry" />
        </mxCell>
        <mxCell id="W-1mWTwF1mWdmzP6A6R2-15" value="IoT &lt;br&gt;Topic" style="sketch=0;outlineConnect=0;fontColor=#232F3E;gradientColor=none;fillColor=#3F8624;strokeColor=none;dashed=0;verticalLabelPosition=bottom;verticalAlign=top;align=center;html=1;fontSize=12;fontStyle=0;aspect=fixed;pointerEvents=1;shape=mxgraph.aws4.topic_2;" vertex="1" parent="1">
          <mxGeometry x="327" y="560" width="34.65" height="51" as="geometry" />
        </mxCell>
        <mxCell id="W-1mWTwF1mWdmzP6A6R2-16" value="" style="edgeStyle=orthogonalEdgeStyle;rounded=0;orthogonalLoop=1;jettySize=auto;html=1;" edge="1" parent="1" source="W-1mWTwF1mWdmzP6A6R2-17" target="W-1mWTwF1mWdmzP6A6R2-20">
          <mxGeometry relative="1" as="geometry" />
        </mxCell>
        <mxCell id="W-1mWTwF1mWdmzP6A6R2-17" value="IoT &lt;br&gt;Rule" style="sketch=0;outlineConnect=0;fontColor=#232F3E;gradientColor=none;fillColor=#3F8624;strokeColor=none;dashed=0;verticalLabelPosition=bottom;verticalAlign=top;align=center;html=1;fontSize=12;fontStyle=0;aspect=fixed;pointerEvents=1;shape=mxgraph.aws4.rule;" vertex="1" parent="1">
          <mxGeometry x="404.31" y="555.5" width="35.38" height="60" as="geometry" />
        </mxCell>
        <mxCell id="W-1mWTwF1mWdmzP6A6R2-20" value="IoT&lt;br&gt;Action" style="sketch=0;outlineConnect=0;fontColor=#232F3E;gradientColor=none;fillColor=#3F8624;strokeColor=none;dashed=0;verticalLabelPosition=bottom;verticalAlign=top;align=center;html=1;fontSize=12;fontStyle=0;aspect=fixed;pointerEvents=1;shape=mxgraph.aws4.action;" vertex="1" parent="1">
          <mxGeometry x="468" y="561" width="50" height="50" as="geometry" />
        </mxCell>
        <mxCell id="W-1mWTwF1mWdmzP6A6R2-21" value="" style="edgeStyle=orthogonalEdgeStyle;rounded=0;orthogonalLoop=1;jettySize=auto;html=1;" edge="1" parent="1" source="W-1mWTwF1mWdmzP6A6R2-20" target="W-1mWTwF1mWdmzP6A6R2-24">
          <mxGeometry relative="1" as="geometry">
            <mxPoint x="654.4993460112373" y="585.5999999999999" as="sourcePoint" />
          </mxGeometry>
        </mxCell>
        <mxCell id="W-1mWTwF1mWdmzP6A6R2-22" value="Store&lt;br&gt;data in &lt;br&gt;Single-measure" style="edgeLabel;html=1;align=center;verticalAlign=middle;resizable=0;points=[];" vertex="1" connectable="0" parent="W-1mWTwF1mWdmzP6A6R2-21">
          <mxGeometry x="-0.1115" y="1" relative="1" as="geometry">
            <mxPoint as="offset" />
          </mxGeometry>
        </mxCell>
        <mxCell id="W-1mWTwF1mWdmzP6A6R2-29" value="" style="edgeStyle=orthogonalEdgeStyle;rounded=0;orthogonalLoop=1;jettySize=auto;html=1;" edge="1" parent="1" source="W-1mWTwF1mWdmzP6A6R2-24" target="W-1mWTwF1mWdmzP6A6R2-28">
          <mxGeometry relative="1" as="geometry" />
        </mxCell>
        <mxCell id="W-1mWTwF1mWdmzP6A6R2-24" value="" style="sketch=0;points=[[0,0,0],[0.25,0,0],[0.5,0,0],[0.75,0,0],[1,0,0],[0,1,0],[0.25,1,0],[0.5,1,0],[0.75,1,0],[1,1,0],[0,0.25,0],[0,0.5,0],[0,0.75,0],[1,0.25,0],[1,0.5,0],[1,0.75,0]];outlineConnect=0;fontColor=#232F3E;gradientColor=#4D72F3;gradientDirection=north;fillColor=#3334B9;strokeColor=#ffffff;dashed=0;verticalLabelPosition=bottom;verticalAlign=top;align=center;html=1;fontSize=12;fontStyle=0;aspect=fixed;shape=mxgraph.aws4.resourceIcon;resIcon=mxgraph.aws4.timestream;" vertex="1" parent="1">
          <mxGeometry x="628" y="554" width="64" height="64" as="geometry" />
        </mxCell>
        <mxCell id="W-1mWTwF1mWdmzP6A6R2-27" value="&lt;b&gt;Option 3&lt;/b&gt;" style="text;html=1;strokeColor=none;fillColor=none;align=center;verticalAlign=middle;whiteSpace=wrap;rounded=0;" vertex="1" parent="1">
          <mxGeometry x="10" y="770" width="60" height="30" as="geometry" />
        </mxCell>
        <mxCell id="W-1mWTwF1mWdmzP6A6R2-46" style="edgeStyle=orthogonalEdgeStyle;rounded=0;orthogonalLoop=1;jettySize=auto;html=1;entryX=1;entryY=0.5;entryDx=0;entryDy=0;entryPerimeter=0;" edge="1" parent="1" source="W-1mWTwF1mWdmzP6A6R2-28" target="W-1mWTwF1mWdmzP6A6R2-24">
          <mxGeometry relative="1" as="geometry">
            <Array as="points">
              <mxPoint x="760" y="665" />
              <mxPoint x="760" y="586" />
            </Array>
          </mxGeometry>
        </mxCell>
        <mxCell id="W-1mWTwF1mWdmzP6A6R2-47" value="convert&lt;br style=&quot;border-color: var(--border-color);&quot;&gt;data to&lt;br style=&quot;border-color: var(--border-color);&quot;&gt;Multi-measure" style="edgeLabel;html=1;align=center;verticalAlign=middle;resizable=0;points=[];" vertex="1" connectable="0" parent="W-1mWTwF1mWdmzP6A6R2-46">
          <mxGeometry x="-0.6035" y="-2" relative="1" as="geometry">
            <mxPoint x="35" y="-37" as="offset" />
          </mxGeometry>
        </mxCell>
        <mxCell id="W-1mWTwF1mWdmzP6A6R2-28" value="Timestream&lt;br&gt;Scheduled Query" style="verticalLabelPosition=bottom;html=1;verticalAlign=top;align=center;strokeColor=none;fillColor=#00BEF2;shape=mxgraph.azure.scheduler;pointerEvents=1;" vertex="1" parent="1">
          <mxGeometry x="640" y="650" width="40" height="50" as="geometry" />
        </mxCell>
        <mxCell id="W-1mWTwF1mWdmzP6A6R2-48" value="" style="endArrow=none;html=1;rounded=0;shape=link;" edge="1" parent="1">
          <mxGeometry width="50" height="50" relative="1" as="geometry">
            <mxPoint x="10" y="370" as="sourcePoint" />
            <mxPoint x="800" y="370" as="targetPoint" />
          </mxGeometry>
        </mxCell>
        <mxCell id="W-1mWTwF1mWdmzP6A6R2-49" value="" style="endArrow=none;html=1;rounded=0;shape=link;" edge="1" parent="1">
          <mxGeometry width="50" height="50" relative="1" as="geometry">
            <mxPoint x="10" y="760" as="sourcePoint" />
            <mxPoint x="800" y="760" as="targetPoint" />
          </mxGeometry>
        </mxCell>
      </root>
    </mxGraphModel>
  </diagram>
  <diagram name="Simulator" id="Pp4AysPbe7vRLOklWED4">
    <mxGraphModel dx="1434" dy="854" grid="1" gridSize="10" guides="1" tooltips="1" connect="1" arrows="1" fold="1" page="1" pageScale="1" pageWidth="850" pageHeight="1100" math="0" shadow="0">
      <root>
        <mxCell id="0" />
        <mxCell id="1" parent="0" />
        <mxCell id="Zi2-bh7K2ZFX1gp0evlW-18" value="" style="whiteSpace=wrap;html=1;aspect=fixed;fillColor=#f5f5f5;fontColor=#333333;strokeColor=#666666;dashed=1;" parent="1" vertex="1">
          <mxGeometry x="10" y="430" width="110" height="110" as="geometry" />
        </mxCell>
        <mxCell id="Zi2-bh7K2ZFX1gp0evlW-1" value="Amazon &lt;br&gt;Timestream" style="sketch=0;points=[[0,0,0],[0.25,0,0],[0.5,0,0],[0.75,0,0],[1,0,0],[0,1,0],[0.25,1,0],[0.5,1,0],[0.75,1,0],[1,1,0],[0,0.25,0],[0,0.5,0],[0,0.75,0],[1,0.25,0],[1,0.5,0],[1,0.75,0]];outlineConnect=0;fontColor=#232F3E;gradientColor=#4D72F3;gradientDirection=north;fillColor=#3334B9;strokeColor=#ffffff;dashed=0;verticalLabelPosition=bottom;verticalAlign=top;align=center;html=1;fontSize=12;fontStyle=0;aspect=fixed;shape=mxgraph.aws4.resourceIcon;resIcon=mxgraph.aws4.timestream;shadow=1;" parent="1" vertex="1">
          <mxGeometry x="490" y="440" width="78" height="78" as="geometry" />
        </mxCell>
        <mxCell id="Zi2-bh7K2ZFX1gp0evlW-5" style="edgeStyle=orthogonalEdgeStyle;rounded=0;orthogonalLoop=1;jettySize=auto;html=1;shadow=1;" parent="1" source="Zi2-bh7K2ZFX1gp0evlW-4" target="nBNQgRxtXkPg-WslGP8L-1" edge="1">
          <mxGeometry relative="1" as="geometry">
            <mxPoint x="386" y="269" as="targetPoint" />
            <Array as="points">
              <mxPoint x="348" y="479" />
              <mxPoint x="348" y="500" />
            </Array>
          </mxGeometry>
        </mxCell>
        <mxCell id="Zi2-bh7K2ZFX1gp0evlW-4" value="AWS&lt;br&gt;IoT Core" style="sketch=0;points=[[0,0,0],[0.25,0,0],[0.5,0,0],[0.75,0,0],[1,0,0],[0,1,0],[0.25,1,0],[0.5,1,0],[0.75,1,0],[1,1,0],[0,0.25,0],[0,0.5,0],[0,0.75,0],[1,0.25,0],[1,0.5,0],[1,0.75,0]];outlineConnect=0;fontColor=#232F3E;gradientColor=#60A337;gradientDirection=north;fillColor=#277116;strokeColor=#ffffff;dashed=0;verticalLabelPosition=bottom;verticalAlign=top;align=center;html=1;fontSize=12;fontStyle=0;aspect=fixed;shape=mxgraph.aws4.resourceIcon;resIcon=mxgraph.aws4.iot_core;shadow=1;" parent="1" vertex="1">
          <mxGeometry x="250" y="440" width="78" height="78" as="geometry" />
        </mxCell>
        <mxCell id="Zi2-bh7K2ZFX1gp0evlW-12" style="edgeStyle=orthogonalEdgeStyle;rounded=0;orthogonalLoop=1;jettySize=auto;html=1;" parent="1" target="Zi2-bh7K2ZFX1gp0evlW-4" edge="1">
          <mxGeometry relative="1" as="geometry">
            <mxPoint x="120" y="480" as="sourcePoint" />
            <Array as="points">
              <mxPoint x="180" y="479" />
              <mxPoint x="180" y="479" />
            </Array>
          </mxGeometry>
        </mxCell>
        <mxCell id="Zi2-bh7K2ZFX1gp0evlW-14" value="MQTT" style="edgeLabel;html=1;align=center;verticalAlign=middle;resizable=0;points=[];" parent="Zi2-bh7K2ZFX1gp0evlW-12" vertex="1" connectable="0">
          <mxGeometry x="-0.2173" y="1" relative="1" as="geometry">
            <mxPoint as="offset" />
          </mxGeometry>
        </mxCell>
        <mxCell id="Zi2-bh7K2ZFX1gp0evlW-11" value="Meter data&lt;br&gt;simulator" style="sketch=0;outlineConnect=0;fontColor=#232F3E;gradientColor=none;fillColor=#2E27AD;strokeColor=none;dashed=0;verticalLabelPosition=bottom;verticalAlign=top;align=center;html=1;fontSize=12;fontStyle=0;aspect=fixed;shape=mxgraph.aws4.cloud9;" parent="1" vertex="1">
          <mxGeometry x="20" y="454" width="78" height="50" as="geometry" />
        </mxCell>
        <mxCell id="Zi2-bh7K2ZFX1gp0evlW-16" value="" style="edgeStyle=orthogonalEdgeStyle;rounded=0;orthogonalLoop=1;jettySize=auto;html=1;shadow=1;" parent="1" source="Zi2-bh7K2ZFX1gp0evlW-15" target="Zi2-bh7K2ZFX1gp0evlW-1" edge="1">
          <mxGeometry relative="1" as="geometry" />
        </mxCell>
        <mxCell id="Zi2-bh7K2ZFX1gp0evlW-15" value="Amazon&lt;br&gt;Quicksight" style="sketch=0;points=[[0,0,0],[0.25,0,0],[0.5,0,0],[0.75,0,0],[1,0,0],[0,1,0],[0.25,1,0],[0.5,1,0],[0.75,1,0],[1,1,0],[0,0.25,0],[0,0.5,0],[0,0.75,0],[1,0.25,0],[1,0.5,0],[1,0.75,0]];outlineConnect=0;fontColor=#232F3E;gradientColor=#945DF2;gradientDirection=north;fillColor=#5A30B5;strokeColor=#ffffff;dashed=0;verticalLabelPosition=bottom;verticalAlign=top;align=center;html=1;fontSize=12;fontStyle=0;aspect=fixed;shape=mxgraph.aws4.resourceIcon;resIcon=mxgraph.aws4.quicksight;shadow=1;" parent="1" vertex="1">
          <mxGeometry x="640" y="440" width="78" height="78" as="geometry" />
        </mxCell>
        <mxCell id="nBNQgRxtXkPg-WslGP8L-2" style="edgeStyle=orthogonalEdgeStyle;rounded=0;orthogonalLoop=1;jettySize=auto;html=1;entryX=0;entryY=0.5;entryDx=0;entryDy=0;entryPerimeter=0;" parent="1" source="nBNQgRxtXkPg-WslGP8L-1" target="Zi2-bh7K2ZFX1gp0evlW-1" edge="1">
          <mxGeometry relative="1" as="geometry" />
        </mxCell>
        <mxCell id="nBNQgRxtXkPg-WslGP8L-1" value="Amazon Kinesis Data Analytics" style="sketch=0;outlineConnect=0;fontColor=#232F3E;gradientColor=none;strokeColor=#ffffff;fillColor=#232F3E;dashed=0;verticalLabelPosition=middle;verticalAlign=bottom;align=center;html=1;whiteSpace=wrap;fontSize=10;fontStyle=1;spacing=3;shape=mxgraph.aws4.productIcon;prIcon=mxgraph.aws4.kinesis_data_analytics;" parent="1" vertex="1">
          <mxGeometry x="365" y="440" width="75" height="120" as="geometry" />
        </mxCell>
      </root>
    </mxGraphModel>
  </diagram>
  <diagram id="J92Lv36CsPTmq0uaQZt9" name="Lab">
    <mxGraphModel dx="1434" dy="854" grid="1" gridSize="10" guides="1" tooltips="1" connect="1" arrows="1" fold="1" page="1" pageScale="1" pageWidth="850" pageHeight="1100" math="0" shadow="0">
      <root>
        <mxCell id="0" />
        <mxCell id="1" parent="0" />
        <mxCell id="Rvo-8qh1cowhY8_Twb3B-1" value="IoT Sensor(s)" style="sketch=0;outlineConnect=0;fontColor=#232F3E;gradientColor=none;fillColor=#3F8624;strokeColor=none;dashed=0;verticalLabelPosition=bottom;verticalAlign=top;align=center;html=1;fontSize=12;fontStyle=0;aspect=fixed;pointerEvents=1;shape=mxgraph.aws4.sensor;" vertex="1" parent="1">
          <mxGeometry x="25" y="60" width="70" height="78" as="geometry" />
        </mxCell>
        <mxCell id="Rvo-8qh1cowhY8_Twb3B-2" style="edgeStyle=orthogonalEdgeStyle;rounded=0;orthogonalLoop=1;jettySize=auto;html=1;" edge="1" parent="1" source="Rvo-8qh1cowhY8_Twb3B-3" target="Rvo-8qh1cowhY8_Twb3B-1">
          <mxGeometry relative="1" as="geometry" />
        </mxCell>
        <mxCell id="Rvo-8qh1cowhY8_Twb3B-3" value="" style="sketch=0;outlineConnect=0;fontColor=#232F3E;gradientColor=none;fillColor=#3F8624;strokeColor=none;dashed=0;verticalLabelPosition=bottom;verticalAlign=top;align=center;html=1;fontSize=12;fontStyle=0;aspect=fixed;pointerEvents=1;shape=mxgraph.aws4.generic;" vertex="1" parent="1">
          <mxGeometry x="21" y="180" width="78" height="78" as="geometry" />
        </mxCell>
      </root>
    </mxGraphModel>
  </diagram>
</mxfile>
